<svg width="24" height="24" viewBox="0 0 24 24" fill="#1E2527" fill-opacity="none" xmlns="http://www.w3.org/2000/svg">
  <path fill-rule="evenodd" d="M8.92644 15.9288L8.66261 18.1818L11.2981 15.9288H18C19.1045 15.9288 20 15.0333 20 13.9287V7C20 5.89526 19.1047 5 18.0003 5H5.99999C4.89573 5 4.00002 5.89556 4 7.0004L4.00005 13.9286C4.00007 15.0333 4.89562 15.9288 6.00004 15.9288H8.92644ZM7.47787 21.8258C7.32645 21.9552 7.12405 22.0171 6.92156 21.9959C6.52945 21.9547 6.24669 21.6195 6.29001 21.2469L6.67857 17.9288H6.00004C5.54143 17.9288 5.10085 17.8516 4.69058 17.7095C3.12457 17.1671 2.00009 15.6792 2.00005 13.9287L2 7.00037C2.00003 4.79127 3.79088 3 5.99999 3H18.0003C20.2094 3 22 4.79086 22 7V13.9287C22 16.1379 20.2091 17.9288 18 17.9288H12.0364L7.47787 21.8258Z"/>
</svg>
