<svg width="24" height="24" viewBox="0 0 24 24" fill="none" xmlns="http://www.w3.org/2000/svg">
<path d="M12.678 19.22C14.001 19.031 15.093 18.569 15.912 17.813C16.752 17.057 17.172 16.091 17.172 14.915C17.172 12.983 15.828 11.66 14.127 11.051C13.287 10.736 12.447 10.463 11.586 10.232C9.906 9.749 8.562 9.119 8.562 8.09C8.562 6.998 9.549 6.2 11.565 6.2C13.182 6.2 14.736 6.662 16.227 7.565V5.276C15.156 4.667 13.98 4.268 12.678 4.121V2H10.41V4.121C7.743 4.457 6.189 5.948 6.189 8.069C6.189 9.413 6.63 10.358 7.701 11.03C8.247 11.345 8.73 11.597 9.171 11.765C9.612 11.933 10.263 12.143 11.082 12.374L11.376 12.458C12.321 12.731 12.72 12.836 13.392 13.151C13.728 13.298 13.98 13.445 14.148 13.592C14.505 13.907 14.799 14.369 14.799 14.957C14.799 16.322 13.329 17.162 11.397 17.162C10.368 17.162 9.36 16.973 8.352 16.595C7.365 16.217 6.567 15.776 6 15.251V17.729C7.155 18.569 8.625 19.073 10.41 19.241V21.362H12.678V19.22Z" fill="#1E2527" fill-opacity="0.58"/>
</svg>
